<svg xmlns="http://www.w3.org/2000/svg" width="55.281" height="66.84" viewBox="0 0 55.281 66.84">
  <defs>
    <style>
      .cls-1 {
        fill: #fff;
        fill-rule: evenodd;
      }
    </style>
  </defs>
  <path id="Challanges" class="cls-1" d="M310.025,1292.64c-0.085,2.11-1.7,3.08-3.3,4a3.249,3.249,0,0,1-4.028-.51c-2.614-2.23-4.14-5.28-6.049-8.04-4.491-6.46-9.382-12.65-13.592-19.31a5.961,5.961,0,0,0-3.611-2.64,6.981,6.981,0,0,1-3.818-2.44c-5.446-7.11-10.753-14.33-13.747-22.88a8.835,8.835,0,0,1,.515-7.75c1.3-2.14,2.5-2.26,3.966-.15,4.491,6.47,9.375,12.65,13.948,19.06,6.608,9.26,13.463,18.36,20.485,27.32,2.736,3.49,5.352,7.06,8.022,10.6A4.9,4.9,0,0,1,310.025,1292.64Zm6.489-54.01c-0.52,5.94-3.754,10.26-8.026,13.98a13.906,13.906,0,0,1-8.17,3.84,3.115,3.115,0,0,0-2.577,1.62c-1.34,2.05-.766,1.04-2.133,3.07-0.835,1.24-1.647,1.21-2.5.04-0.044-.06-0.092-0.12-0.14-0.18-3.659-4.41-4.24-3.59-.932-7.34,1.266-1.44.714-1.65,0.457-3.62-0.988-7.57,5.044-16.94,12.237-19.45,0.637-.22,1.37-0.64,1.9.06,0.515,0.68-.043,1.32-0.427,1.86a81.715,81.715,0,0,1-5.806,7.95c-0.514.58-1.288,1.44-.364,2.19s1.795,0.03,2.383-.66c1.5-1.73,2.886-3.56,4.335-5.35a28.329,28.329,0,0,1,2.241-2.6c0.748-.73,1.736-1.84,2.778-0.9,0.931,0.85-.02,1.78-0.442,2.52-1.668,2.93-3.441,5.79-5.162,8.68-0.383.65-1,1.42-.173,2.03,0.959,0.71,1.52-.19,2.033-0.84,2.035-2.57,4.039-5.17,6.083-7.73,0.444-.56.775-1.55,1.737-1.14C316.7,1237.01,316.472,1237.95,316.514,1238.63ZM267.75,1297.1a6.361,6.361,0,0,1-4.173-2.91c-0.964-1.54-.226-2.96.728-4.23,5-6.67,8.028-10.32,13.017-17.01,0.78-1.04,1.331-1.15,2.334-.16a31.863,31.863,0,0,1,3.41,4.6,1.442,1.442,0,0,1-.107,1.9c-5.126,6.19-6.894,10.35-12.109,16.48A3.633,3.633,0,0,1,267.75,1297.1Z" transform="translate(-261.219 -1230.28)"/>
</svg>
