<svg xmlns="http://www.w3.org/2000/svg" xmlns:xlink="http://www.w3.org/1999/xlink" version="1.1" x="0px" y="0px" viewBox="0 0 512 640" enable-background="new 0 0 512 512" xml:space="preserve"><g><path d="M395.7,78.2c-10.8,0-21,2-30.9,4.8C350.4,36.2,307.4,2,256,2c-51.5,0-94.4,34.2-108.8,81c-9.9-2.8-20.1-4.8-30.9-4.8   C53.2,78.2,2,129.4,2,192.5c0,49.8,32.1,91.7,76.5,107.4v98.3c0,5.6,4.5,10.2,10.2,10.2h335.3c5.6,0,10.2-4.5,10.2-10.2v-98.5   c44.1-15.8,75.9-57.6,75.9-107.2C510,129.4,458.8,78.2,395.7,78.2z"/><path d="M423.6,459.2H88.4c-5.6,0-10.2,4.5-10.2,10.2v30.5c0,5.6,4.5,10.2,10.2,10.2h335.3c5.6,0,10.2-4.5,10.2-10.2v-30.5   C433.8,463.7,429.3,459.2,423.6,459.2z"/></g></svg>
