<svg xmlns="http://www.w3.org/2000/svg" width="76.219" height="60.43" viewBox="0 0 76.219 60.43">
  <defs>
    <style>
      .cls-1 {
        fill: #fff;
        fill-rule: evenodd;
      }
    </style>
  </defs>
  <path id="House" class="cls-1" d="M128.37,1259.35l-11.635-8.42v-10.18a3.045,3.045,0,0,0-3.05-3.05h-3.129a3.045,3.045,0,0,0-3.049,3.05v3.52l-12.037-8.66a4.948,4.948,0,0,0-5.858,0l-33.14,23.9a4.983,4.983,0,0,0-.562,7.62,5.2,5.2,0,0,0,6.66.32l28.165-20.29a3.139,3.139,0,0,1,3.691,0l28.326,20.45a4.924,4.924,0,0,0,7.382-1.84A5.18,5.18,0,0,0,128.37,1259.35Zm-62.991,13h0v18.92a3.849,3.849,0,0,0,3.852,3.85H85.119v-18.68a2.5,2.5,0,0,1,2.487-2.49h9.95a2.5,2.5,0,0,1,2.487,2.49v18.68h15.808a3.849,3.849,0,0,0,3.852-3.85v-18.92l-27.2-19.57Z" transform="translate(-54.406 -1234.69)"/>
</svg>
