<?xml version="1.0" encoding="utf-8"?>
<!-- Generator: Adobe Illustrator 24.1.2, SVG Export Plug-In . SVG Version: 6.00 Build 0)  -->
<svg version="1.1" id="Layer_1" xmlns="http://www.w3.org/2000/svg" xmlns:xlink="http://www.w3.org/1999/xlink" x="0px" y="0px"
	 viewBox="0 0 165.3 35.6" style="enable-background:new 0 0 165.3 35.6;" xml:space="preserve">
<style type="text/css">
	.st0{fill-rule:evenodd;clip-rule:evenodd;fill:#FFFFFF;}
</style>
<path id="COOKY" class="st0" d="M15.1,29.5c-2.8,0-5.4-2.1-5.4-4.6V10.9c0-2.5,2.6-4.5,5.4-4.5c2.1-0.1,4.1,0.8,5.4,2.4
	c0.4,0.6,1.2,0.7,1.7,0.3c0,0,0.1-0.1,0.1-0.1l1.4-1.3C24.3,7.4,24.4,6.6,24,6C24,6,24,6,24,6c-2-3-5.4-4.8-9-4.8
	c-6,0-10.9,4.3-10.9,9.8v13.8c0,5.5,4.9,9.9,10.9,9.9c3.6,0,7-1.8,9-4.8c0.4-0.5,0.4-1.3-0.1-1.7c0,0,0,0-0.1-0.1l-1.4-1.3
	c-0.5-0.5-1.3-0.4-1.8,0.1c0,0-0.1,0.1-0.1,0.1C19.2,28.7,17.2,29.5,15.1,29.5z M57.8,11c0-5.5-4.9-9.8-11.1-9.8
	c-6.1,0-10.9,4.3-10.9,9.8v13.9c0,5.5,4.9,9.8,10.9,9.8c6.2,0,11.1-4.3,11.1-9.8C57.8,24.9,57.8,11,57.8,11z M52.2,24.9
	c0,2.5-2.6,4.5-5.3,4.5c-2.9,0-5.4-2-5.4-4.5v-14c0-2.5,2.5-4.5,5.4-4.5c2.8,0,5.3,2,5.3,4.5V24.9z M93.2,11c0-5.5-4.9-9.8-11.1-9.8
	c-6.1,0-10.9,4.3-10.9,9.8v13.9c0,5.5,4.9,9.8,10.9,9.8c6.2,0,11.1-4.3,11.1-9.8V11z M87.6,24.9c0,2.5-2.6,4.5-5.3,4.5
	c-2.9,0-5.4-2-5.4-4.5v-14c0-2.5,2.5-4.5,5.4-4.5c2.8,0,5.3,2,5.3,4.5V24.9z M112.2,14.7v-12c0-0.5-0.4-1-0.9-1h-3.8
	c-0.5,0-1,0.5-0.9,1V33c0,0.5,0.4,1,0.9,1h3.8c0.5,0,1-0.5,0.9-1V22.7c0.7-0.8,1.5-1.7,2.1-2.5l7.4,12.9c0.2,0.6,0.8,1,1.5,0.9h3.3
	c0.6,0.1,1.2-0.4,1.2-1c0-0.3,0-0.5-0.2-0.7l-9.5-16.2l9.5-10.8c0.3-0.4,0.3-1,0-1.4l-2.4-2.1c-0.5-0.4-1.2-0.4-1.6,0.1L112.2,14.7z
	 M147,33c0,0.5,0.4,1,0.9,1h3.7c0.5,0,1-0.5,0.9-1V16.7l8.4-12.2c0.4-0.4,0.3-1.1-0.1-1.4c0,0,0,0,0,0l-2.6-1.9
	c-0.5-0.4-1.2-0.4-1.6,0.1c0,0,0,0-0.1,0.1l-6.8,10.1L143,1.3c-0.4-0.5-1.1-0.6-1.5-0.2c0,0,0,0-0.1,0.1l-2.6,1.9
	c-0.4,0.3-0.5,1-0.2,1.4c0,0,0,0,0,0l8.4,12.2L147,33z"/>
</svg>
